<svg width="24" height="24" viewBox="0 0 24 24" fill="none" xmlns="http://www.w3.org/2000/svg">
<path d="M13.7317 12.0035L7.00729 5.53883C6.82213 5.36125 6.72027 5.12383 6.72027 4.87067C6.72027 4.61737 6.82213 4.38009 7.00729 4.20223L7.59652 3.63606C7.78139 3.45793 8.02851 3.35987 8.29185 3.35987C8.55519 3.35987 8.80202 3.45793 8.98703 3.63606L16.9935 11.3328C17.1793 11.5112 17.281 11.7497 17.2803 12.0031C17.281 12.2577 17.1794 12.4958 16.9935 12.6743L8.99449 20.3637C8.80948 20.5418 8.56265 20.6399 8.29916 20.6399C8.03582 20.6399 7.78899 20.5418 7.60383 20.3637L7.01475 19.7975C6.63142 19.429 6.63142 18.8291 7.01475 18.4608L13.7317 12.0035Z" fill="#2FB3C7"/>
</svg>
